<svg width="34" height="26" viewBox="0 0 34 26" fill="none" xmlns="http://www.w3.org/2000/svg">
<path d="M29.9737 6.51558C29.9421 6.36397 29.8752 6.22121 29.7792 6.09867C29.6831 5.97612 29.5619 5.87758 29.4216 5.80936C29.2827 5.74114 29.1285 5.70576 28.9731 5.70576H9.51367L8.90852 5.67671C8.77208 4.33755 8.26674 3.21822 7.40387 2.3465C6.60416 1.51901 5.73371 1.12863 4.81778 1.18927C4.60933 1.20317 3.93722 1.32571 4.00418 2.33261C4.01555 2.50821 4.15452 2.64845 4.33013 2.66108C5.20942 2.72551 5.92069 3.06662 6.50562 3.70335C7.08929 4.33881 7.42029 5.18021 7.48725 6.20353C7.49357 6.30586 7.50746 6.37155 7.52515 6.41198L7.73234 8.71887L8.39308 16.0792C8.39308 16.0943 8.39308 16.1082 8.39308 16.1234C8.3956 16.1626 8.40066 16.2017 8.40697 16.2384L8.4474 16.6944C8.4474 16.7033 8.44866 16.7121 8.44993 16.7197C8.55226 17.6066 9.30648 18.4669 10.2401 18.8901C9.75118 19.369 9.41639 20.0032 9.31406 20.7132C9.28121 20.8926 9.261 21.077 9.261 21.2665C9.261 22.9758 10.6507 24.3655 12.36 24.3655C12.379 24.3655 12.3979 24.3655 12.4181 24.3643C12.4371 24.3643 12.4548 24.3655 12.4737 24.3655C14.2374 24.3655 15.6662 22.9354 15.6662 21.173C15.6662 20.7005 15.5626 20.252 15.3782 19.8478H20.8674C20.7449 20.1863 20.6817 20.9077 20.683 21.2665C20.683 21.427 20.6956 21.5849 20.7184 21.739C20.9445 23.226 22.2281 24.3655 23.7782 24.3655C23.7782 24.3655 23.7782 24.3655 23.7795 24.3655C23.7807 24.3655 23.7795 24.3655 23.7807 24.3655C25.4901 24.3655 26.8798 22.9758 26.8798 21.2665C26.8798 19.5572 25.4901 18.1675 23.7807 18.1675H14.5191C14.231 18.1536 13.9379 18.1271 13.6373 18.0854C12.7479 17.9616 11.9519 17.7253 11.2786 17.3855C11.0727 17.2869 10.8389 17.1644 10.6418 17.0153C10.3677 16.8094 10.1643 16.5542 10.2073 16.2472C10.2388 16.0185 10.3349 15.8593 10.4915 15.7734C10.5901 15.7191 10.7113 15.7305 10.7985 15.8012C11.4365 16.3179 12.2514 16.6742 13.2254 16.865C13.3669 16.8928 13.5122 16.9168 13.66 16.9383C14.039 16.9913 14.4003 17.0191 14.7465 17.028H14.768C15.1988 17.0368 15.6056 17.0141 15.9846 16.9547L26.3163 16.3306L26.9568 16.2927C27.1741 16.28 27.3813 16.1979 27.5493 16.059C27.7174 15.92 27.8361 15.7317 27.8892 15.5208L29.9661 6.97923C30.004 6.82889 30.0066 6.67097 29.9737 6.51937V6.51558Z" fill="#FC6040"/>
</svg>
