<svg width="150" height="150" viewBox="0 0 150 150" fill="none" xmlns="http://www.w3.org/2000/svg">
<g clip-path="url(#clip0_3_32)">
<path d="M148.42 21.22C144.32 8.89 132.71 0 119 0H101.66C99.58 0 98.53 2.51 99.99 3.99C99.99 3.99 99.99 3.99 100 4C105.22 9.25 105.32 12.3 105.76 18.93C106.22 24.76 104.78 29.4 101.47 32.68C100.72 33.43 97.99 35.57 94.38 31.94C93.75 31.3 93.68 30.29 94.22 29.58C96.93 26.01 98.03 22.15 97.57 17.78C97.11 13.41 95.02 9.32 91.34 5.62L91.26 5.54C87.73 1.99 82.93 0 77.92 0H31C13.88 0 0 13.88 0 31V119C0 136.12 13.88 150 31 150H119C136.12 150 150 136.12 150 119V31C150 27.58 149.44 24.3 148.42 21.22Z" fill="#FFBF91"/>
<path d="M49.9942 86.8906C52.6866 83.7513 54 80.1934 54 76.0168C54 70.7938 52.2738 66.5716 48.7183 63.1321C45.1628 59.6743 40.8755 58 35.6032 58C30.3309 58 25.9873 59.647 22.3661 63.0411C18.7543 66.4078 17 70.6573 17 76.0077C17 79.0196 17.7505 81.6766 19.214 83.8969C19.9926 85.0707 20.7056 86.19 21.6813 86.8724C26.1187 89.9935 32.2072 91.0854 37.0292 91.8316C40.1907 92.323 43.4085 91.7315 46.3542 90.1573C47.6676 89.2656 48.8872 88.1827 49.9942 86.8906Z" fill="#9324B3"/>
<path d="M126.994 86.8906C129.687 83.7513 131 80.1934 131 76.0168C131 70.7938 129.274 66.5716 125.718 63.1321C122.163 59.6743 117.876 58 112.603 58C107.331 58 102.987 59.647 99.3661 63.0411C95.7543 66.4078 94 70.6573 94 76.0077C94 79.0196 94.7505 81.6766 96.214 83.8969C96.9926 85.0707 97.7056 86.19 98.6813 86.8724C103.119 89.9935 109.207 91.0854 114.029 91.8316C117.191 92.323 120.408 91.7315 123.354 90.1573C124.668 89.2656 125.887 88.1827 126.994 86.8906Z" fill="#9324B3"/>
<path d="M106.44 108.221C107.106 107.164 108.4 106.795 109.446 107.329L109.445 107.335C111.331 108.29 112.268 109.531 112.641 110.747C112.993 111.899 112.857 113.086 112.452 114.077L112.367 114.272C110.978 117.314 109.996 118.903 107.928 120.397L107.892 120.422L107.861 120.453C107.689 120.623 107.524 120.78 107.354 120.915L107.182 121.042L107.18 121.044C106.636 121.42 93.3221 130.548 75.7499 130.548C59.2637 130.548 45.7407 122.617 43.6366 121.316L43.371 121.149C43.0968 120.965 42.8391 120.757 42.6219 120.541L42.5887 120.508L42.5516 120.481L42.161 120.194C40.2741 118.751 39.3047 117.162 37.9784 114.273H37.9794C37.5094 113.236 37.3288 111.968 37.705 110.742C38.0772 109.529 39.0139 108.291 40.9003 107.335L40.8993 107.334C41.8876 106.835 43.0926 107.124 43.787 108.032L43.9188 108.221L43.9198 108.222C44.5964 109.295 45.1199 110.11 45.7294 110.813C46.3487 111.528 47.0449 112.116 48.0624 112.768L48.0829 112.781L48.1034 112.792C48.1087 112.794 48.1401 112.81 48.1454 112.813C48.1551 112.818 48.1605 112.821 48.1659 112.824C48.1679 112.825 48.1707 112.827 48.1747 112.83C48.1835 112.835 48.1966 112.843 48.2118 112.852C48.2428 112.871 48.2854 112.898 48.3397 112.93C48.4486 112.996 48.6034 113.087 48.8007 113.201C49.1952 113.429 49.7609 113.748 50.4794 114.125C51.916 114.878 53.9634 115.87 56.4667 116.857C61.4686 118.83 68.315 120.794 75.7635 120.794C86.5797 120.794 95.5442 116.647 99.6522 114.38L99.7772 114.311L99.8534 114.191L99.8846 114.14C101.872 113.088 103.063 112.344 103.977 111.49C104.68 110.834 105.206 110.126 105.806 109.212L106.439 108.222L106.44 108.221Z" fill="#9324B3" stroke="#9324B3" stroke-width="1.1102"/>
</g>
<defs>
<clipPath id="clip0_3_32">
<rect width="150" height="150" rx="31" fill="white"/>
</clipPath>
</defs>
</svg>
