<svg width="1181" height="145" viewBox="0 0 1181 145" fill="none" xmlns="http://www.w3.org/2000/svg">
<g clip-path="url(#clip0_3_5)">
<path d="M131.79 31.73C130.98 24.46 128.44 19.3 124.23 16.35C119.86 13.28 112.91 11.73 103.56 11.73C98.5 11.73 93.77 12.27 89.51 13.34C85.7 14.29 82.51 15.39 80.02 16.61L70.64 55.61C70.4 56.59 69.53 57.25 68.51 57.25C64.67 57.16 62.38 54.99 62.38 51.47C62.38 50.34 62.54 49.17 62.86 47.98L66.25 33.73L61.1 16.51C55.09 13.34 47.47 11.73 38.42 11.73C25.84 11.73 16.17 14.51 9.66 20C8.54 27.27 7.05 39.76 5.24 57.15C1.77 91.71 0 113.65 0 122.38C0 128.64 3.52 133.44 10.75 137.06C16.9 140.13 24.01 141.69 31.9 141.69C39.79 141.69 46.18 141.12 50.47 139.99C54.37 138.96 58.15 137.33 61.72 135.13L62.4 119.03C59.27 118.39 56.25 117.08 53.4 115.15C49.15 112.45 45.51 108.64 42.65 103.86C41.65 102.19 41.13 100.59 41.13 99.12C41.13 96.96 42.41 94.66 46 94.66H46.61C47.39 94.66 48.11 95.09 48.49 95.77C51.46 101.21 54.73 105.06 58.21 107.22C61.66 109.36 65.93 110.44 70.89 110.44C80.67 110.44 87.55 105.98 91.92 96.79C92.23 96.14 92.83 95.7 93.53 95.6C93.76 95.52 94.01 95.47 94.26 95.47H94.56C97.5 95.47 99.33 97.3 99.33 100.24C99.33 101.96 98.65 103.83 97.26 105.96C93.11 112.02 88.02 116.02 82.09 117.9L82.83 125.63C83.25 130.75 85.9 134.6 90.95 137.42C95.88 140.27 102.84 141.7 111.65 141.7C124.69 141.7 134.86 138.15 141.87 131.14C141.7 120.93 138.61 89.98 132.69 39.09C132.29 35.67 131.99 33.22 131.78 31.75L131.79 31.73Z" fill="#9324B3"/>
<path d="M361.77 72.7C362.84 72.7 363.74 73.49 363.89 74.54C364.63 79.83 366.97 84 371.05 87.28C375.12 90.56 380.34 92.22 386.55 92.22C394.32 92.22 400.39 89.9 405.11 85.12C409.83 80.33 412.13 74.26 412.13 66.54C412.13 55.28 407.88 46.63 399.13 40.08C390.31 33.48 379 30.14 365.51 30.14C350.35 30.14 337.56 34.72 327.49 43.75C316.21 53.87 310.5 67.86 310.5 85.35C310.5 102.84 315.56 117.05 325.53 127.41C335.48 137.75 349.07 142.99 365.92 142.99C379.64 142.99 390.69 139.62 398.75 132.96C405.71 127.2 409.1 120.49 409.1 112.46C409.1 106.33 407.87 100.97 405.44 96.49C399.97 99.52 393.27 101.05 385.49 101.05C376.67 101.05 369.17 98.42 363.2 93.24C357.89 88.74 355.18 83.63 355.18 78.07C355.18 76.81 355.66 72.7 361.77 72.7Z" fill="#9324B3"/>
<path d="M523.44 104.4C522.28 101.21 521.69 97.02 521.69 91.94V91.91L521.99 72.19C521.99 62.55 519.64 54.43 515.02 48.09C511.18 42.94 505.82 39.03 499.1 36.49C493.7 34.43 487.52 33.39 480.74 33.39C473.96 33.39 468.09 34.45 463.23 36.55C458.4 38.63 454.63 41.23 452.02 44.27C451.53 44.85 450.76 45.12 450.02 44.98C448.82 44.76 447.78 44.19 446.92 43.28C446.01 42.32 445.53 41.13 445.53 39.84C445.53 36.72 448.09 33.79 453.57 30.61C458.63 27.77 463.94 26.03 469.4 25.44V17.8C469.4 11.86 466.92 7.43001 461.81 4.24001C457.14 1.44001 451.05 0.0100098 443.72 0.0100098C439.27 0.0100098 434.81 0.60001 430.46 1.76001C426.61 2.79001 423.22 4.08001 420.36 5.60001V122.39C420.36 128.38 422.91 133.07 428.14 136.72C432.76 140.03 438.3 141.7 444.62 141.7C455.25 141.7 463.71 138.84 469.8 133.2C466.7 127.01 465.14 120.15 465.14 112.78C465.14 105.41 465.75 97.85 466.95 91.03L465.66 74.82C465.59 73.99 466.01 73.21 466.73 72.8C468 72.07 469.46 71.71 471.08 71.71C473.08 71.71 474.73 72.66 475.83 74.44C476.76 75.94 477.21 78.17 477.21 81.23C477.21 83.99 477.1 86.05 476.88 87.51C476.68 88.83 476.5 90.25 476.34 91.77C476.17 93.33 475.87 95.92 475.43 99.54C475 103.03 474.79 107.15 474.79 111.77C474.79 122.21 477.65 130.04 483.28 135.06C488.13 139.47 494.57 141.7 502.44 141.7C510.31 141.7 516.7 139.36 521.69 134.56C526.59 129.84 529.08 123.06 529.08 114.4V112.58C529.08 112.29 529.08 112.05 529.08 111.86C526.46 109.98 524.57 107.48 523.45 104.41L523.44 104.4Z" fill="#9324B3"/>
<path d="M740.26 19.08C735.38 16.2 728.77 14.74 720.63 14.74C715.61 14.74 710.69 15.49 706 16.97C701.73 18.32 701.07 18.66 698 21.01V31.01L705.58 44.81C708.06 48.98 716.4 61.58 716.4 62.6C716.4 64.68 715.46 65.85 714.66 66.46C713.67 67.23 712.55 67.62 711.33 67.62C710.58 67.62 709.88 67.23 709.5 66.58C701.52 53.3 688.32 33.73 686.05 30.13C683.85 26.64 681.4 23.17 678.75 19.79C676.97 18.43 674.35 17.26 670.96 16.33C667.35 15.34 663.44 14.84 659.34 14.84C652.04 14.84 645.62 15.96 640.28 18.17C635.55 20.12 633.15 22.4 633.15 24.94V126.29C633.15 132.11 635.56 136.48 640.51 139.67C645.7 143 653.07 144.69 662.42 144.69C671.77 144.69 674.8 142.46 682.01 138.06V126L674.41 114.57C671.53 109.8 663.66 100.45 663.66 99.37C663.66 96.49 665.45 94.53 668.44 94.12C669.3 94.01 670.13 94.41 670.57 95.14L688.39 119.84C692.96 127.21 697.63 133.99 702.27 139.95C704.4 141.22 707.35 142.28 711.06 143.13C715.04 144.03 719.18 144.49 723.38 144.49C730.9 144.49 736.94 143.38 741.34 141.18C746.14 138.9 748.45 135.39 748.45 130.45V34.65C748.45 27.5 745.78 22.41 740.28 19.08H740.26Z" fill="#9324B3"/>
<path d="M811.98 30.24C795.73 30.24 782.44 35.35 772.48 45.43C762.52 55.52 757.47 69.55 757.47 87.12C757.47 104.69 762.83 118.74 773.4 128.92C782.99 138.25 796.23 142.98 812.77 142.98C829.31 142.98 842.5 137.96 852.05 128.06C861.62 118.14 866.47 104.5 866.47 87.51C866.47 70.52 861.43 56.57 851.48 46.04C841.5 35.55 828.2 30.22 811.97 30.22L811.98 30.24ZM817.25 99.11C817.25 101.4 816.92 102.98 816.21 104.1C815.35 105.46 813.88 106.2 812.08 106.2C810.42 106.2 809.12 105.75 808.24 104.87C807.84 104.47 807.62 103.93 807.62 103.36V85.66C807.62 81.7 807.32 76.35 806.72 69.77C806.66 69.14 806.89 68.51 807.34 68.07C808.41 67 809.77 66.43 811.28 66.43C812.79 66.43 815.32 67.05 816.39 71.23C816.98 73.55 817.27 77.94 817.27 84.65V99.11H817.25Z" fill="#9324B3"/>
<path d="M951.11 103.78C945.2 103.78 938.15 101.16 938.15 88.69V73.42C938.15 72.24 939.11 71.28 940.29 71.28H953.61C955.06 68.98 956.21 66.22 957.04 63.06C958 59.41 958.49 55.82 958.49 52.38C958.49 45.25 956.84 38.93 953.58 33.58H937.26C936.08 33.58 935.12 32.62 935.12 31.44V8.39998C929.29 7.24998 923.31 6.66998 917.33 6.66998C911.35 6.66998 905.72 7.23998 900.9 8.36998C900.55 9.26998 900.24 10.19 899.96 11.11C896.92 21.11 894.41 28.52 892.51 33.16C892.36 33.52 892.12 33.83 891.81 34.06C885.49 38.74 880.36 42.35 876.55 44.8C875.84 48.16 875.48 52.48 875.48 57.68C875.48 62.88 876.05 67.25 877.17 71.37H906.23C907.21 71.37 908.07 72.04 908.3 72.99C908.48 73.72 908.56 74.27 908.56 74.72C908.56 76.37 907.86 80.19 901.37 80.19H889.24V107.29C889.24 118.62 892.33 127.27 898.43 132.99C904.57 138.75 912.99 141.67 923.47 141.67C933.95 141.67 942.06 139.34 947.48 134.74C952.86 130.17 955.48 123.7 955.48 114.98C955.48 111.8 954.93 108.03 953.85 103.77H951.14L951.11 103.78Z" fill="#9324B3"/>
<path d="M1173.87 82.86C1169.91 78.08 1164.69 74.54 1158.39 72.35C1151.94 70.11 1144.91 68.98 1137.49 68.98H1135.06C1133.93 68.98 1133.01 69.01 1132.32 69.07C1131.7 69.12 1131.08 68.91 1130.63 68.47C1129.89 67.74 1129.89 66.76 1129.89 66.34V65.83C1129.89 64.37 1130.43 61.76 1134.03 60.65C1134.06 60.65 1134.09 60.63 1134.11 60.63C1134.88 60.43 1136.55 60.16 1142.14 60.16C1146.28 60.16 1150.96 60.81 1156.06 62.09C1160.49 63.21 1164.4 64.6 1167.69 66.23C1171.06 62.33 1172.77 56.86 1172.77 49.96C1172.77 45.31 1172.28 41.7 1171.31 39.23C1166.49 36.6 1160.68 34.44 1154.02 32.81C1147.04 31.11 1139.4 30.24 1131.31 30.24C1115.04 30.24 1102.12 34.09 1092.92 41.69C1084.66 48.54 1080.65 57.27 1080.65 68.36C1080.65 79.45 1085.1 87.65 1094.26 93.68C1102.43 99.08 1113.57 101.82 1127.37 101.82H1128.48C1129.05 101.82 1129.53 101.79 1129.9 101.74C1130.9 101.59 1131.86 102.17 1132.21 103.11C1132.51 103.9 1132.65 104.81 1132.65 105.88C1132.65 107.66 1131.76 110.65 1125.76 110.65C1117.68 110.65 1109.92 109.48 1102.7 107.16C1096.22 105.08 1091.01 102.6 1087.2 99.78C1085.95 100.91 1084.76 102.56 1083.66 104.69C1082.21 107.5 1081.47 110.66 1081.47 114.08C1081.47 123.53 1085.54 130.51 1093.91 135.4C1102.54 140.44 1114.75 143 1130.21 143C1145.67 143 1157.99 139.6 1167.07 132.9C1176.08 126.25 1180.46 116.62 1180.46 103.47C1180.46 95.18 1178.24 88.25 1173.86 82.87L1173.87 82.86Z" fill="#9324B3"/>
<path d="M576.4 38.08C579.27 34.63 580.67 30.72 580.67 26.13C580.67 20.39 578.83 15.75 575.04 11.97C571.25 8.18003 566.68 6.34003 561.06 6.34003C555.44 6.34003 550.81 8.15003 546.95 11.88C543.1 15.59 541.23 20.25 541.23 26.14C541.23 29.45 542.03 32.37 543.59 34.81C544.42 36.1 545.18 37.33 546.22 38.08C550.95 41.51 557.44 42.71 562.58 43.53C565.95 44.07 569.38 43.42 572.52 41.69C573.92 40.71 575.22 39.52 576.4 38.1V38.08Z" fill="#9324B3"/>
<path d="M584.51 91.02V51.82C584.06 51.39 583.23 50.66 581.77 49.5C580.94 49.97 580.1 50.4 579.25 50.8C577.78 51.56 576.32 52.11 574.86 52.46C572.09 53.27 569.24 53.69 566.37 53.69C564.78 53.69 563.19 53.56 561.6 53.31C554.31 52.14 545.63 49.57 537.77 45.59C537.62 45.68 537.46 45.75 537.31 45.84V110.45C537.31 121.29 540.5 129.6 546.8 135.15C551.76 139.49 558.21 141.7 565.97 141.7C573.73 141.7 579.92 139.51 584.48 135.2C589.41 130.64 591.9 123.64 591.9 114.4V112.58C591.9 112.28 591.9 112.04 591.9 111.85C587 108.2 584.52 101.21 584.52 91.04L584.51 91.02Z" fill="#9324B3"/>
<path d="M1065.48 107.59C1062.17 109.63 1058.02 111.42 1053.1 112.94C1047.36 114.71 1040.92 115.61 1033.96 115.61C1027 115.61 1020.64 114.65 1015.11 112.76C1011.09 111.49 1005.67 109.3 1005.67 105.17C1005.67 103.38 1006.23 102.06 1007.34 101.23C1008.04 100.71 1008.98 100.66 1009.72 101.11C1015.96 104.87 1023.76 106.77 1032.89 106.77C1045.17 106.77 1054.95 104.12 1061.96 98.9C1069.49 93.4 1073.14 85.42 1073.14 74.52C1073.14 62.26 1068.46 51.79 1059.22 43.38C1049.93 34.92 1037.36 30.64 1021.87 30.64C1006.38 30.64 993.44 35.45 983.38 44.93C972.48 55.12 966.96 69.14 966.96 86.62C966.96 104.1 972.32 118.02 982.88 128.01C993.22 137.96 1007.59 143 1025.61 143C1036.5 143 1045.85 141.61 1053.41 138.88C1058.51 137.14 1063.54 134.22 1068.4 130.2C1068.86 128.1 1069.09 125.7 1069.09 123.04C1069.09 120.1 1068.62 116.78 1067.69 113.15C1066.98 110.39 1066.19 108.67 1065.47 107.59H1065.48ZM1024.78 64.76C1033.53 64.76 1034.47 69.98 1034.47 72.23C1034.47 74.48 1033.56 79.96 1025.17 79.96C1021.53 79.96 1018.23 79.08 1015.37 77.34C1014.43 76.77 1013.92 75.69 1014.07 74.6C1014.96 68.26 1018.76 64.77 1024.78 64.77V64.76Z" fill="#9324B3"/>
<path d="M288.55 67.2C281.7 56.07 272.09 45.23 259.41 38.14C257.21 36.91 254.93 35.79 252.54 34.81C250 33.76 247.56 36.47 248.8 38.92C249.26 39.83 249.67 40.78 250.03 41.75C252.19 47.45 252.1 52.5 249.75 56.76C249.19 57.77 246.93 60.92 241.84 57.73C241.36 57.43 241.17 56.81 241.39 56.29C243.27 51.74 243.31 47.4 241.5 43C239.77 38.77 236.48 35.29 231.72 32.66C229.43 31.39 227.18 30.5 224.97 29.97C220.36 30.02 216.01 30.45 211.91 31.22C166.66 39.7 152 88.68 152 104.8C152 138.25 193.62 144.02 208.31 144.02H245.79C260.46 144.02 302.01 138.25 302.01 105.21C302.01 97.69 297.78 82.2 288.55 67.22V67.2Z" fill="#FFBF91"/>
<path d="M255.709 112.356C254.749 111.886 253.579 112.216 252.989 113.106C251.669 115.086 251.279 115.606 248.279 117.106L248.199 117.226C245.239 118.776 238.789 121.606 231.019 121.606C220.319 121.606 211.309 116.246 211.149 116.156C211.129 116.146 211.109 116.136 211.089 116.126C209.659 115.256 209.189 114.596 208.199 113.106C207.609 112.216 206.439 111.896 205.479 112.356C202.569 113.756 202.419 116.076 203.169 117.646C204.209 119.796 204.979 120.976 206.629 122.086C206.809 122.256 207.019 122.416 207.239 122.556C207.679 122.826 218.099 129.106 231.009 129.106C243.919 129.106 253.689 122.746 254.099 122.476C254.299 122.346 254.479 122.186 254.649 122.026C256.239 120.936 256.989 119.766 258.009 117.646C258.759 116.086 258.609 113.756 255.699 112.356H255.709Z" fill="#9324B3"/>
<path d="M203.906 100.756C205.798 98.5399 206.722 96.0281 206.722 93.0795C206.722 89.3921 205.508 86.4114 203.009 83.9831C200.51 81.542 197.497 80.36 193.791 80.36C190.085 80.36 187.032 81.5227 184.487 83.9189C181.948 86.2957 180.715 89.2957 180.715 93.073C180.715 95.1994 181.242 97.0752 182.271 98.6426C182.818 99.4713 183.32 100.261 184.005 100.743C187.124 102.947 191.404 103.718 194.793 104.244C197.015 104.591 199.277 104.174 201.347 103.062C202.271 102.433 203.128 101.668 203.906 100.756Z" fill="#9324B3"/>
<path d="M274.191 100.756C276.083 98.5399 277.007 96.0281 277.007 93.0795C277.007 89.3921 275.793 86.4114 273.294 83.9831C270.795 81.542 267.782 80.36 264.076 80.36C260.37 80.36 257.317 81.5227 254.772 83.9189C252.233 86.2957 251 89.2957 251 93.073C251 95.1994 251.528 97.0752 252.556 98.6426C253.103 99.4713 253.605 100.261 254.29 100.743C257.409 102.947 261.689 103.718 265.078 104.244C267.3 104.591 269.562 104.174 271.633 103.062C272.556 102.433 273.413 101.668 274.191 100.756Z" fill="#9324B3"/>
</g>
<defs>
<clipPath id="clip0_3_5">
<rect width="1180.48" height="144.69" fill="white"/>
</clipPath>
</defs>
</svg>
